<?xml version="1.0" encoding="utf-8"?>
<!-- Generator: Adobe Illustrator 23.0.1, SVG Export Plug-In . SVG Version: 6.00 Build 0)  -->
<svg version="1.1" id="Layer_1" xmlns="http://www.w3.org/2000/svg" xmlns:xlink="http://www.w3.org/1999/xlink" x="0px" y="0px"
	 viewBox="0 0 100 100" style="enable-background:new 0 0 100 100;" xml:space="preserve">
<path d="M79,21v4c0,1.1-0.9,2-2,2H23c-1.1,0-2-0.9-2-2v-4c0-1.1,0.9-2,2-2h54C78.1,19,79,19.9,79,21z M25.2,31h49.5l-6.4,58.2
	c-0.1,1-0.9,1.8-2,1.8H33.6c-1,0-1.9-0.8-2-1.9L25.2,31z M59.7,77c0.1,0,0.2,0,0.3,0c1,0,1.8-0.7,2-1.7l4-28
	c0.2-1.1-0.6-2.1-1.7-2.3c-1.1-0.2-2.1,0.6-2.3,1.7l-4,28C57.9,75.8,58.6,76.8,59.7,77z M48,75c0,1.1,0.9,2,2,2s2-0.9,2-2V47
	c0-1.1-0.9-2-2-2s-2,0.9-2,2V75z M34,47.3l4,28c0.1,1,1,1.7,2,1.7c0.1,0,0.2,0,0.3,0c1.1-0.2,1.9-1.2,1.7-2.3l-4-28
	c-0.2-1.1-1.2-1.8-2.3-1.7C34.6,45.2,33.9,46.2,34,47.3z M58,11c0-1.1-0.9-2-2-2H44c-1.1,0-2,0.9-2,2v4h16V11z"/>
</svg>
