<?xml version="1.0" encoding="utf-8"?>
<!-- Generator: Adobe Illustrator 23.0.1, SVG Export Plug-In . SVG Version: 6.00 Build 0)  -->
<svg version="1.1" id="Layer_1" xmlns="http://www.w3.org/2000/svg" xmlns:xlink="http://www.w3.org/1999/xlink" x="0px" y="0px"
	 viewBox="0 0 100 100" style="enable-background:new 0 0 100 100;" xml:space="preserve">
<path d="M85,11.5c-2.1-2.1-4.8-3.2-7.8-3.2c-2.9,0-5.7,1.1-7.8,3.2L10.1,70.9c-0.3,0.3-0.4,0.6-0.5,0.9l-4.2,17
	c-0.2,0.7,0,1.4,0.5,1.9c0.4,0.4,0.9,0.6,1.4,0.6c0.2,0,0.3,0,0.5-0.1l17-4.2c0.4-0.1,0.7-0.3,0.9-0.5L85,27
	C89.3,22.7,89.3,15.8,85,11.5z M14.3,72.3L59.6,27l9.9,9.9L24.2,82.2L14.3,72.3z M62.4,24.2l4.2-4.2l9.9,9.9l-4.2,4.2L62.4,24.2z
	 M12.6,76.2l7.7,7.7L10,86.5L12.6,76.2z M82.2,24.2L79.4,27l-9.9-9.9l2.8-2.8c1.3-1.3,3.1-2,5-2c1.9,0,3.6,0.7,4.9,2
	C84.9,17,84.9,21.5,82.2,24.2z M94.7,89.7c0,1.1-0.9,2-2,2h-56c-1.1,0-2-0.9-2-2s0.9-2,2-2h56C93.9,87.7,94.7,88.6,94.7,89.7z"/>
</svg>
